<svg width="37" height="37" viewBox="0 0 37 37" fill="none" xmlns="http://www.w3.org/2000/svg">
<path d="M33.9167 7.47707V25.8075C33.9167 27.3029 32.6988 28.675 31.2033 28.86L30.7254 28.9217C28.1971 29.2608 24.6358 30.3092 21.7683 31.5117C20.7662 31.9279 19.6562 31.1725 19.6562 30.0779V8.63332C19.6562 8.0629 19.98 7.53874 20.4887 7.26124C23.31 5.73499 27.5804 4.37832 30.4788 4.13165H30.5713C32.4213 4.13165 33.9167 5.62707 33.9167 7.47707Z" fill="#FC7753"/>
<path d="M16.5117 7.26124C13.6904 5.73499 9.42003 4.37832 6.52169 4.13165H6.41378C4.56378 4.13165 3.06836 5.62707 3.06836 7.47707V25.8075C3.06836 27.3029 4.28628 28.675 5.78169 28.86L6.25961 28.9217C8.78794 29.2608 12.3492 30.3092 15.2167 31.5117C16.2188 31.9279 17.3288 31.1725 17.3288 30.0779V8.63332C17.3288 8.04749 17.0204 7.53874 16.5117 7.26124ZM7.70878 11.9325H11.1775C11.8096 11.9325 12.3338 12.4567 12.3338 13.0887C12.3338 13.7362 11.8096 14.245 11.1775 14.245H7.70878C7.07669 14.245 6.55253 13.7362 6.55253 13.0887C6.55253 12.4567 7.07669 11.9325 7.70878 11.9325ZM12.3338 18.87H7.70878C7.07669 18.87 6.55253 18.3612 6.55253 17.7137C6.55253 17.0817 7.07669 16.5575 7.70878 16.5575H12.3338C12.9659 16.5575 13.49 17.0817 13.49 17.7137C13.49 18.3612 12.9659 18.87 12.3338 18.87Z" fill="#FC7753"/>
</svg>
