<svg width="37" height="37" viewBox="0 0 37 37" fill="none" xmlns="http://www.w3.org/2000/svg">
<path d="M33.9173 33.9166H3.08398C2.4519 33.9166 1.92773 33.3925 1.92773 32.7604C1.92773 32.1283 2.4519 31.6041 3.08398 31.6041H33.9173C34.5494 31.6041 35.0736 32.1283 35.0736 32.7604C35.0736 33.3925 34.5494 33.9166 33.9173 33.9166Z" fill="#FC7753"/>
<path d="M15.0312 6.16671V33.9167H21.9688V6.16671C21.9688 4.47087 21.275 3.08337 19.1937 3.08337H17.8063C15.725 3.08337 15.0312 4.47087 15.0312 6.16671Z" fill="#FC7753"/>
<path d="M4.625 15.4167V33.9167H10.7917V15.4167C10.7917 13.7209 10.175 12.3334 8.325 12.3334H7.09167C5.24167 12.3334 4.625 13.7209 4.625 15.4167Z" fill="#FC7753"/>
<path d="M26.209 23.125V33.9166H32.3757V23.125C32.3757 21.4291 31.759 20.0416 29.909 20.0416H28.6757C26.8257 20.0416 26.209 21.4291 26.209 23.125Z" fill="#FC7753"/>
</svg>
