<svg width="37" height="37" viewBox="0 0 37 37" fill="none" xmlns="http://www.w3.org/2000/svg">
<path d="M24.9602 3.08331H12.0411C6.4294 3.08331 3.08398 6.42873 3.08398 12.0404V24.9441C3.08398 30.5712 6.4294 33.9166 12.0411 33.9166H24.9448C30.5565 33.9166 33.9019 30.5712 33.9019 24.9596V12.0404C33.9173 6.42873 30.5719 3.08331 24.9602 3.08331ZM24.2819 24.2812H12.7194C12.0873 24.2812 11.5632 23.7571 11.5632 23.125C11.5632 22.4929 12.0873 21.9687 12.7194 21.9687H24.2819C24.914 21.9687 25.4382 22.4929 25.4382 23.125C25.4382 23.7571 24.914 24.2812 24.2819 24.2812ZM24.2819 15.0312H12.7194C12.0873 15.0312 11.5632 14.5071 11.5632 13.875C11.5632 13.2429 12.0873 12.7187 12.7194 12.7187H24.2819C24.914 12.7187 25.4382 13.2429 25.4382 13.875C25.4382 14.5071 24.914 15.0312 24.2819 15.0312Z" fill="#FC7753"/>
</svg>
