<svg width="37" height="37" viewBox="0 0 37 37" fill="none" xmlns="http://www.w3.org/2000/svg">
<path d="M7.04426 16.65H0V37H7.04426V16.65Z" fill="#FC7753"/>
<path d="M26.4141 2.3125C27.5587 0.9065 29.3374 0 31.1689 0C34.4269 0 36.9804 2.6825 36.9804 6.105C36.9804 10.3045 31.8557 15.17 26.4141 20.35C20.9724 15.1515 15.8477 10.286 15.8477 6.105C15.8477 2.6825 18.4012 0 21.6592 0C23.4907 0 25.2694 0.9065 26.4141 2.3125Z" fill="#FC7753"/>
<path d="M33.4583 27.75H21.1308L17.4502 26.3995L18.0314 24.6605L21.1308 25.9H26.0971C27.2417 25.9 28.1751 24.9195 28.1751 23.717C28.1751 22.8105 27.6292 21.9965 26.8191 21.6635L14.0338 16.65H10.5645V33.337L22.8919 37L36.9981 31.45C36.9804 29.415 35.4131 27.75 33.4583 27.75Z" fill="#FC7753"/>
</svg>
