<svg width="710" height="223" viewBox="0 0 710 223" fill="none" xmlns="http://www.w3.org/2000/svg">
<path d="M1.44 84L28.32 16.224H41.952L68.544 84H52.608L32.256 27.744H37.728L17.088 84H1.44ZM16.704 71.712V59.424H53.664V71.712H16.704ZM92.2657 84.96C87.9778 84.96 84.1378 83.904 80.7458 81.792C77.4178 79.68 74.7618 76.8 72.7778 73.152C70.8578 69.504 69.8978 65.344 69.8978 60.672C69.8978 56 70.8578 51.84 72.7778 48.192C74.7618 44.544 77.4178 41.664 80.7458 39.552C84.1378 37.44 87.9778 36.384 92.2657 36.384C95.4018 36.384 98.2178 36.992 100.714 38.208C103.274 39.424 105.354 41.12 106.954 43.296C108.554 45.408 109.45 47.84 109.642 50.592V70.752C109.45 73.504 108.554 75.968 106.954 78.144C105.418 80.256 103.37 81.92 100.81 83.136C98.2498 84.352 95.4018 84.96 92.2657 84.96ZM95.2418 71.712C98.3778 71.712 100.906 70.688 102.826 68.64C104.746 66.528 105.706 63.872 105.706 60.672C105.706 58.496 105.258 56.576 104.362 54.912C103.53 53.248 102.314 51.968 100.714 51.072C99.1778 50.112 97.3858 49.632 95.3378 49.632C93.2898 49.632 91.4658 50.112 89.8658 51.072C88.3298 51.968 87.0818 53.248 86.1218 54.912C85.2258 56.576 84.7778 58.496 84.7778 60.672C84.7778 62.784 85.2258 64.672 86.1218 66.336C87.0178 68 88.2658 69.312 89.8658 70.272C91.4658 71.232 93.2578 71.712 95.2418 71.712ZM105.13 84V71.424L107.338 60.096L105.13 48.768V37.344H119.53V84H105.13ZM156.752 84.96C153.616 84.96 150.736 84.352 148.112 83.136C145.488 81.92 143.344 80.256 141.68 78.144C140.016 75.968 139.056 73.504 138.799 70.752V51.072C139.056 48.32 140.016 45.824 141.68 43.584C143.344 41.344 145.488 39.584 148.112 38.304C150.736 37.024 153.616 36.384 156.752 36.384C161.168 36.384 165.072 37.44 168.464 39.552C171.92 41.664 174.608 44.544 176.528 48.192C178.512 51.84 179.504 56 179.504 60.672C179.504 65.344 178.512 69.504 176.528 73.152C174.608 76.8 171.92 79.68 168.464 81.792C165.072 83.904 161.168 84.96 156.752 84.96ZM129.872 103.68V37.344H144.56V49.344L142.16 60.672L144.368 72V103.68H129.872ZM154.064 71.712C156.176 71.712 158 71.232 159.536 70.272C161.136 69.312 162.384 68 163.28 66.336C164.176 64.672 164.624 62.784 164.624 60.672C164.624 58.496 164.176 56.576 163.28 54.912C162.384 53.248 161.136 51.968 159.536 51.072C158 50.112 156.208 49.632 154.16 49.632C152.112 49.632 150.288 50.112 148.688 51.072C147.152 51.968 145.936 53.248 145.04 54.912C144.144 56.576 143.696 58.496 143.696 60.672C143.696 62.784 144.112 64.672 144.944 66.336C145.84 68 147.088 69.312 148.688 70.272C150.288 71.232 152.08 71.712 154.064 71.712ZM206.837 84.96C202.421 84.96 198.485 83.904 195.029 81.792C191.637 79.68 188.949 76.8 186.965 73.152C185.045 69.504 184.085 65.344 184.085 60.672C184.085 56 185.045 51.84 186.965 48.192C188.949 44.544 191.637 41.664 195.029 39.552C198.485 37.44 202.421 36.384 206.837 36.384C210.037 36.384 212.917 36.992 215.477 38.208C218.101 39.424 220.245 41.12 221.909 43.296C223.637 45.408 224.597 47.84 224.789 50.592V70.272C224.597 73.024 223.669 75.52 222.005 77.76C220.341 79.936 218.197 81.696 215.573 83.04C212.949 84.32 210.037 84.96 206.837 84.96ZM209.429 71.712C211.541 71.712 213.365 71.264 214.901 70.368C216.437 69.408 217.653 68.096 218.549 66.432C219.445 64.768 219.893 62.848 219.893 60.672C219.893 58.496 219.445 56.608 218.549 55.008C217.717 53.344 216.501 52.032 214.901 51.072C213.365 50.112 211.573 49.632 209.525 49.632C207.477 49.632 205.653 50.112 204.053 51.072C202.517 52.032 201.269 53.344 200.309 55.008C199.413 56.672 198.965 58.56 198.965 60.672C198.965 62.784 199.413 64.672 200.309 66.336C201.205 68 202.453 69.312 204.053 70.272C205.653 71.232 207.445 71.712 209.429 71.712ZM233.717 84H219.317V71.424L221.525 60.096L219.029 48.768V14.304H233.717V84ZM263.547 84.96C259.259 84.96 255.419 83.904 252.027 81.792C248.699 79.68 246.043 76.8 244.059 73.152C242.139 69.504 241.179 65.344 241.179 60.672C241.179 56 242.139 51.84 244.059 48.192C246.043 44.544 248.699 41.664 252.027 39.552C255.419 37.44 259.259 36.384 263.547 36.384C266.683 36.384 269.499 36.992 271.995 38.208C274.555 39.424 276.635 41.12 278.235 43.296C279.835 45.408 280.731 47.84 280.923 50.592V70.752C280.731 73.504 279.835 75.968 278.235 78.144C276.699 80.256 274.651 81.92 272.091 83.136C269.531 84.352 266.683 84.96 263.547 84.96ZM266.523 71.712C269.659 71.712 272.187 70.688 274.107 68.64C276.027 66.528 276.987 63.872 276.987 60.672C276.987 58.496 276.539 56.576 275.643 54.912C274.811 53.248 273.595 51.968 271.995 51.072C270.459 50.112 268.667 49.632 266.619 49.632C264.571 49.632 262.747 50.112 261.147 51.072C259.611 51.968 258.363 53.248 257.403 54.912C256.507 56.576 256.059 58.496 256.059 60.672C256.059 62.784 256.507 64.672 257.403 66.336C258.299 68 259.547 69.312 261.147 70.272C262.747 71.232 264.539 71.712 266.523 71.712ZM276.411 84V71.424L278.619 60.096L276.411 48.768V37.344H290.811V84H276.411ZM7.296 180V112.8H14.976L42.912 158.784H37.92L65.856 112.8H73.536V180H62.496V132.192L64.992 132.864L44.256 166.944H36.576L15.84 132.864L18.336 132.192V180H7.296ZM86.7645 180V133.92H97.3245V180H86.7645ZM92.0445 125.472C90.2525 125.472 88.7485 124.864 87.5325 123.648C86.3805 122.432 85.8045 120.928 85.8045 119.136C85.8045 117.344 86.3805 115.84 87.5325 114.624C88.7485 113.408 90.2525 112.8 92.0445 112.8C93.9005 112.8 95.4045 113.408 96.5565 114.624C97.7085 115.84 98.2845 117.344 98.2845 119.136C98.2845 120.928 97.7085 122.432 96.5565 123.648C95.4045 124.864 93.9005 125.472 92.0445 125.472ZM116.177 180V114.72H126.737V180H116.177ZM105.137 143.52V133.92H137.777V143.52H105.137ZM145.45 180V133.92H156.01V180H145.45ZM156.01 154.368L152.362 152.544C152.362 146.72 153.642 142.016 156.202 138.432C158.826 134.784 162.762 132.96 168.01 132.96C170.314 132.96 172.394 133.376 174.25 134.208C176.106 135.04 177.834 136.384 179.434 138.24L172.522 145.344C171.69 144.448 170.762 143.808 169.738 143.424C168.714 143.04 167.53 142.848 166.186 142.848C163.242 142.848 160.81 143.776 158.89 145.632C156.97 147.488 156.01 150.4 156.01 154.368ZM202.433 180.96C198.273 180.96 194.497 179.904 191.105 177.792C187.777 175.68 185.121 172.832 183.137 169.248C181.217 165.6 180.257 161.536 180.257 157.056C180.257 152.512 181.217 148.448 183.137 144.864C185.121 141.216 187.777 138.336 191.105 136.224C194.497 134.048 198.273 132.96 202.433 132.96C205.953 132.96 209.057 133.728 211.745 135.264C214.497 136.736 216.673 138.784 218.273 141.408C219.873 144.032 220.673 147.008 220.673 150.336V163.584C220.673 166.912 219.873 169.888 218.273 172.512C216.737 175.136 214.593 177.216 211.841 178.752C209.089 180.224 205.953 180.96 202.433 180.96ZM204.161 170.976C208.065 170.976 211.201 169.664 213.569 167.04C216.001 164.416 217.217 161.056 217.217 156.96C217.217 154.208 216.673 151.776 215.585 149.664C214.497 147.552 212.961 145.92 210.977 144.768C209.057 143.552 206.785 142.944 204.161 142.944C201.601 142.944 199.329 143.552 197.345 144.768C195.425 145.92 193.889 147.552 192.737 149.664C191.649 151.776 191.105 154.208 191.105 156.96C191.105 159.712 191.649 162.144 192.737 164.256C193.889 166.368 195.425 168.032 197.345 169.248C199.329 170.4 201.601 170.976 204.161 170.976ZM216.545 180V167.616L218.369 156.384L216.545 145.248V133.92H227.105V180H216.545Z" fill="#2B3674"/>
<rect x="356" y="4" width="18" height="177" fill="#FC7753"/>
<path d="M438.528 111V43.224H449.088L453.6 56.76V111H438.528ZM485.28 111L445.344 59.832L449.088 43.224L489.024 94.392L485.28 111ZM485.28 111L481.248 97.464V43.224H496.32V111H485.28ZM519.579 111V97.752H536.379C540.475 97.752 544.059 96.952 547.131 95.352C550.203 93.688 552.571 91.288 554.235 88.152C555.899 85.016 556.731 81.304 556.731 77.016C556.731 72.728 555.867 69.048 554.139 65.976C552.475 62.904 550.107 60.536 547.035 58.872C544.027 57.208 540.475 56.376 536.379 56.376H519.099V43.224H536.571C541.691 43.224 546.395 44.056 550.683 45.72C555.035 47.32 558.811 49.656 562.011 52.728C565.275 55.736 567.771 59.32 569.499 63.48C571.291 67.576 572.187 72.12 572.187 77.112C572.187 82.04 571.291 86.584 569.499 90.744C567.771 94.904 565.307 98.488 562.107 101.496C558.907 104.504 555.131 106.84 550.779 108.504C546.491 110.168 541.819 111 536.763 111H519.579ZM509.403 111V43.224H524.475V111H509.403ZM593.298 83.064V71.928H607.602C610.61 71.928 612.914 71.16 614.514 69.624C616.178 68.088 617.01 66.008 617.01 63.384C617.01 60.952 616.21 58.936 614.61 57.336C613.01 55.736 610.706 54.936 607.698 54.936H593.298V43.224H609.426C613.906 43.224 617.842 44.088 621.234 45.816C624.626 47.48 627.282 49.816 629.202 52.824C631.122 55.832 632.082 59.288 632.082 63.192C632.082 67.16 631.122 70.648 629.202 73.656C627.282 76.6 624.594 78.904 621.138 80.568C617.682 82.232 613.618 83.064 608.946 83.064H593.298ZM581.778 111V43.224H596.85V111H581.778ZM618.642 111L597.522 81.816L611.346 78.072L636.498 111H618.642ZM643.091 111V43.224H658.163V111H643.091ZM654.611 84.408V71.448H688.499V84.408H654.611ZM654.611 56.184V43.224H690.035V56.184H654.611Z" fill="#2B3674"/>
</svg>
