<svg width="37" height="37" viewBox="0 0 37 37" fill="none" xmlns="http://www.w3.org/2000/svg">
<path d="M27.0256 11.9787C26.9177 11.9633 26.8098 11.9633 26.7018 11.9787C24.3123 11.9016 22.416 9.94373 22.416 7.53873C22.416 5.08748 24.4048 3.08331 26.8714 3.08331C29.3227 3.08331 31.3268 5.07206 31.3268 7.53873C31.3114 9.94373 29.4152 11.9016 27.0256 11.9787Z" fill="#FC7753"/>
<path d="M32.0514 22.6625C30.3247 23.8188 27.9043 24.2504 25.6689 23.9575C26.2547 22.6933 26.563 21.2904 26.5785 19.8104C26.5785 18.2688 26.2393 16.8042 25.5918 15.5246C27.8735 15.2163 30.2939 15.6479 32.036 16.8042C34.4718 18.4075 34.4718 21.0438 32.0514 22.6625Z" fill="#FC7753"/>
<path d="M9.92841 11.9787C10.0363 11.9633 10.1442 11.9633 10.2522 11.9787C12.6417 11.9016 14.538 9.94373 14.538 7.53873C14.538 5.07206 12.5492 3.08331 10.0826 3.08331C7.63133 3.08331 5.64258 5.07206 5.64258 7.53873C5.64258 9.94373 7.53883 11.9016 9.92841 11.9787Z" fill="#FC7753"/>
<path d="M10.0985 19.8104C10.0985 21.3058 10.4222 22.7242 11.008 24.0037C8.8343 24.235 6.56805 23.7725 4.90305 22.6779C2.46721 21.0592 2.46721 18.4229 4.90305 16.8042C6.55263 15.6942 8.88055 15.2471 11.0697 15.4937C10.4376 16.7887 10.0985 18.2533 10.0985 19.8104Z" fill="#FC7753"/>
<path d="M18.6854 24.4662C18.5621 24.4508 18.4233 24.4508 18.2846 24.4662C15.4479 24.3737 13.1816 22.0458 13.1816 19.1783C13.1971 16.2492 15.5558 13.875 18.5004 13.875C21.4296 13.875 23.8037 16.2492 23.8037 19.1783C23.7883 22.0458 21.5375 24.3737 18.6854 24.4662Z" fill="#FC7753"/>
<path d="M13.6737 27.6575C11.3458 29.2146 11.3458 31.7738 13.6737 33.3154C16.3253 35.0883 20.6728 35.0883 23.3245 33.3154C25.6524 31.7583 25.6524 29.1992 23.3245 27.6575C20.6883 25.8846 16.3408 25.8846 13.6737 27.6575Z" fill="#FC7753"/>
</svg>
