<svg width="37" height="37" viewBox="0 0 37 37" fill="none" xmlns="http://www.w3.org/2000/svg">
<path d="M28.5822 6.35175L20.1031 3.17592C19.2243 2.85217 17.7906 2.85217 16.9118 3.17592L8.43266 6.35175C6.79849 6.96842 5.47266 8.88008 5.47266 10.6222V23.1097C5.47266 24.3584 6.28974 26.008 7.29182 26.748L15.771 33.0842C17.2664 34.2097 19.7177 34.2097 21.2131 33.0842L29.6922 26.748C30.6943 25.9926 31.5114 24.3584 31.5114 23.1097V10.6222C31.5268 8.88008 30.201 6.96842 28.5822 6.35175ZM23.8647 14.9851L17.2356 21.6143C17.0043 21.8455 16.7114 21.9534 16.4185 21.9534C16.1256 21.9534 15.8327 21.8455 15.6014 21.6143L13.1347 19.1168C12.6877 18.6697 12.6877 17.9297 13.1347 17.4826C13.5818 17.0355 14.3218 17.0355 14.7689 17.4826L16.4339 19.1476L22.246 13.3355C22.6931 12.8884 23.4331 12.8884 23.8802 13.3355C24.3272 13.7826 24.3272 14.538 23.8647 14.9851Z" fill="#FC7753"/>
</svg>
